<svg width="21" height="20" viewBox="0 0 21 20" fill="none" xmlns="http://www.w3.org/2000/svg">
<path d="M20.3129 10.2103C20.3129 9.44113 19.6894 8.81762 18.9203 8.81762H11.957V1.85433C11.957 1.08518 11.3335 0.46167 10.5643 0.46167V0.46167C9.79518 0.46167 9.17167 1.08518 9.17167 1.85433V8.81762H2.20838C1.43923 8.81762 0.81572 9.44113 0.81572 10.2103V10.2103C0.81572 10.9794 1.43923 11.6029 2.20838 11.6029H9.17167V18.5662C9.17167 19.3354 9.79518 19.9589 10.5643 19.9589V19.9589C11.3335 19.9589 11.957 19.3354 11.957 18.5662V11.6029H18.9203C19.6894 11.6029 20.3129 10.9794 20.3129 10.2103V10.2103Z" fill="#0D1B39"/>
</svg>
