<svg width="16" height="16" viewBox="0 0 16 16" fill="none" xmlns="http://www.w3.org/2000/svg">
<path d="M12.4677 9.90905C12.2705 10.1002 12.1798 10.3767 12.2248 10.6478L12.9018 14.395C12.959 14.7126 12.8249 15.034 12.5591 15.2175C12.2987 15.4079 11.9521 15.4308 11.668 15.2785L8.29487 13.5191C8.17758 13.4567 8.04735 13.4232 7.91407 13.4193H7.70767C7.63608 13.43 7.56601 13.4529 7.50204 13.4879L4.12811 15.2556C3.96131 15.3394 3.77244 15.3691 3.58736 15.3394C3.13649 15.2541 2.83566 14.8245 2.90953 14.3714L3.58736 10.6242C3.6323 10.3508 3.54167 10.0728 3.34441 9.87859L0.59424 7.21293C0.364234 6.98977 0.284265 6.65466 0.389367 6.3523C0.491423 6.0507 0.751893 5.83059 1.06644 5.78109L4.85164 5.23196C5.13952 5.20226 5.39238 5.02709 5.52185 4.76814L7.18978 1.34848C7.22938 1.27231 7.28041 1.20225 7.3421 1.14284L7.41064 1.08953C7.44644 1.04992 7.48757 1.01717 7.53326 0.990516L7.61628 0.960051L7.74575 0.906738H8.06639C8.35275 0.936441 8.60485 1.10781 8.7366 1.36371L10.4266 4.76814C10.5485 5.01719 10.7853 5.19007 11.0588 5.23196L14.8439 5.78109C15.1638 5.82678 15.4311 6.04765 15.537 6.3523C15.6368 6.65771 15.5507 6.99282 15.3161 7.21293L12.4677 9.90905Z" fill="#F6B76F"/>
</svg>
